<mxfile host="app.diagrams.net" modified="2023-06-15T02:44:36.668Z" agent="Mozilla/5.0 (Windows NT 10.0; Win64; x64) AppleWebKit/537.36 (KHTML, like Gecko) Chrome/114.0.0.0 Safari/537.36 Edg/114.0.1823.43" etag="s4_qSjcOgdV5is7jlxDy" version="21.3.7" type="github">
  <diagram name="第 1 页" id="wWUAdz8lI7sKBqC8GPak">
    <mxGraphModel dx="1526" dy="1641" grid="1" gridSize="10" guides="1" tooltips="1" connect="1" arrows="1" fold="1" page="1" pageScale="1" pageWidth="827" pageHeight="1169" math="0" shadow="0">
      <root>
        <mxCell id="0" />
        <mxCell id="1" parent="0" />
        <mxCell id="67cp0wCS2jolBxcsPaVe-2" value="考生" style="shape=umlActor;verticalLabelPosition=bottom;verticalAlign=top;html=1;outlineConnect=0;" parent="1" vertex="1">
          <mxGeometry y="700" width="30" height="60" as="geometry" />
        </mxCell>
        <mxCell id="67cp0wCS2jolBxcsPaVe-6" value="教师" style="shape=umlActor;verticalLabelPosition=bottom;verticalAlign=top;html=1;outlineConnect=0;" parent="1" vertex="1">
          <mxGeometry x="-60" y="150" width="30" height="60" as="geometry" />
        </mxCell>
        <mxCell id="67cp0wCS2jolBxcsPaVe-7" value="管理人员" style="shape=umlActor;verticalLabelPosition=bottom;verticalAlign=top;html=1;outlineConnect=0;" parent="1" vertex="1">
          <mxGeometry x="640" y="430" width="30" height="60" as="geometry" />
        </mxCell>
        <mxCell id="67cp0wCS2jolBxcsPaVe-54" value="&amp;lt;&amp;lt;include&amp;gt;&amp;gt;" style="rounded=0;orthogonalLoop=1;jettySize=auto;html=1;exitX=1;exitY=0;exitDx=0;exitDy=0;entryX=0;entryY=1;entryDx=0;entryDy=0;dashed=1;" parent="1" source="67cp0wCS2jolBxcsPaVe-8" target="67cp0wCS2jolBxcsPaVe-52" edge="1">
          <mxGeometry relative="1" as="geometry" />
        </mxCell>
        <mxCell id="67cp0wCS2jolBxcsPaVe-8" value="试卷管理" style="ellipse;whiteSpace=wrap;html=1;" parent="1" vertex="1">
          <mxGeometry x="40" y="240" width="110" height="50" as="geometry" />
        </mxCell>
        <mxCell id="67cp0wCS2jolBxcsPaVe-10" value="" style="endArrow=none;html=1;rounded=0;entryX=0;entryY=0;entryDx=0;entryDy=0;" parent="1" target="67cp0wCS2jolBxcsPaVe-8" edge="1">
          <mxGeometry width="50" height="50" relative="1" as="geometry">
            <mxPoint x="-30" y="190" as="sourcePoint" />
            <mxPoint x="20" y="140" as="targetPoint" />
          </mxGeometry>
        </mxCell>
        <mxCell id="67cp0wCS2jolBxcsPaVe-14" value="试卷管理" style="ellipse;whiteSpace=wrap;html=1;" parent="1" vertex="1">
          <mxGeometry x="-190" y="1030" width="110" height="50" as="geometry" />
        </mxCell>
        <mxCell id="67cp0wCS2jolBxcsPaVe-60" style="rounded=0;orthogonalLoop=1;jettySize=auto;html=1;exitX=0;exitY=0.5;exitDx=0;exitDy=0;entryX=1;entryY=0;entryDx=0;entryDy=0;endArrow=block;endFill=0;" parent="1" source="67cp0wCS2jolBxcsPaVe-16" target="67cp0wCS2jolBxcsPaVe-17" edge="1">
          <mxGeometry relative="1" as="geometry" />
        </mxCell>
        <mxCell id="67cp0wCS2jolBxcsPaVe-16" value="查询具体成绩" style="ellipse;whiteSpace=wrap;html=1;" parent="1" vertex="1">
          <mxGeometry x="249" y="50" width="110" height="50" as="geometry" />
        </mxCell>
        <mxCell id="67cp0wCS2jolBxcsPaVe-17" value="成绩查看" style="ellipse;whiteSpace=wrap;html=1;" parent="1" vertex="1">
          <mxGeometry x="40" y="90" width="110" height="50" as="geometry" />
        </mxCell>
        <mxCell id="67cp0wCS2jolBxcsPaVe-48" value="&amp;lt;&amp;lt;extend&amp;gt;&amp;gt;" style="rounded=0;orthogonalLoop=1;jettySize=auto;html=1;exitX=0;exitY=0;exitDx=0;exitDy=0;entryX=1;entryY=1;entryDx=0;entryDy=0;dashed=1;" parent="1" source="67cp0wCS2jolBxcsPaVe-18" target="67cp0wCS2jolBxcsPaVe-20" edge="1">
          <mxGeometry relative="1" as="geometry" />
        </mxCell>
        <mxCell id="67cp0wCS2jolBxcsPaVe-18" value="打印成绩单" style="ellipse;whiteSpace=wrap;html=1;" parent="1" vertex="1">
          <mxGeometry x="359" y="930" width="110" height="50" as="geometry" />
        </mxCell>
        <mxCell id="67cp0wCS2jolBxcsPaVe-20" value="成绩查询" style="ellipse;whiteSpace=wrap;html=1;" parent="1" vertex="1">
          <mxGeometry x="160" y="850" width="110" height="50" as="geometry" />
        </mxCell>
        <mxCell id="67cp0wCS2jolBxcsPaVe-21" value="考试" style="ellipse;whiteSpace=wrap;html=1;" parent="1" vertex="1">
          <mxGeometry x="220" y="610" width="110" height="50" as="geometry" />
        </mxCell>
        <mxCell id="67cp0wCS2jolBxcsPaVe-22" value="报名缴费" style="ellipse;whiteSpace=wrap;html=1;" parent="1" vertex="1">
          <mxGeometry x="170" y="730" width="110" height="50" as="geometry" />
        </mxCell>
        <mxCell id="67cp0wCS2jolBxcsPaVe-23" value="考生注册" style="ellipse;whiteSpace=wrap;html=1;" parent="1" vertex="1">
          <mxGeometry x="630" y="760" width="110" height="50" as="geometry" />
        </mxCell>
        <mxCell id="67cp0wCS2jolBxcsPaVe-35" value="&amp;lt;&amp;lt;include&amp;gt;&amp;gt;" style="edgeStyle=orthogonalEdgeStyle;rounded=0;orthogonalLoop=1;jettySize=auto;html=1;exitX=1;exitY=0.5;exitDx=0;exitDy=0;entryX=0;entryY=0.5;entryDx=0;entryDy=0;dashed=1;" parent="1" source="67cp0wCS2jolBxcsPaVe-24" target="67cp0wCS2jolBxcsPaVe-23" edge="1">
          <mxGeometry relative="1" as="geometry" />
        </mxCell>
        <mxCell id="67cp0wCS2jolBxcsPaVe-24" value="登录系统" style="ellipse;whiteSpace=wrap;html=1;" parent="1" vertex="1">
          <mxGeometry x="414" y="760" width="110" height="50" as="geometry" />
        </mxCell>
        <mxCell id="67cp0wCS2jolBxcsPaVe-29" value="" style="edgeStyle=orthogonalEdgeStyle;rounded=0;orthogonalLoop=1;jettySize=auto;html=1;exitX=0.5;exitY=0;exitDx=0;exitDy=0;entryX=0.5;entryY=1;entryDx=0;entryDy=0;endArrow=block;endFill=0;" parent="1" source="67cp0wCS2jolBxcsPaVe-25" target="67cp0wCS2jolBxcsPaVe-8" edge="1">
          <mxGeometry relative="1" as="geometry">
            <mxPoint as="offset" />
          </mxGeometry>
        </mxCell>
        <mxCell id="67cp0wCS2jolBxcsPaVe-25" value="试卷删除" style="ellipse;whiteSpace=wrap;html=1;" parent="1" vertex="1">
          <mxGeometry x="40" y="350" width="110" height="50" as="geometry" />
        </mxCell>
        <mxCell id="67cp0wCS2jolBxcsPaVe-28" value="" style="rounded=0;orthogonalLoop=1;jettySize=auto;html=1;exitX=0.5;exitY=0;exitDx=0;exitDy=0;entryX=0;entryY=1;entryDx=0;entryDy=0;endArrow=block;endFill=0;" parent="1" source="67cp0wCS2jolBxcsPaVe-26" target="67cp0wCS2jolBxcsPaVe-8" edge="1">
          <mxGeometry relative="1" as="geometry" />
        </mxCell>
        <mxCell id="67cp0wCS2jolBxcsPaVe-26" value="试卷录入" style="ellipse;whiteSpace=wrap;html=1;" parent="1" vertex="1">
          <mxGeometry x="-110" y="350" width="110" height="50" as="geometry" />
        </mxCell>
        <mxCell id="67cp0wCS2jolBxcsPaVe-30" value="" style="rounded=0;orthogonalLoop=1;jettySize=auto;html=1;exitX=0.5;exitY=0;exitDx=0;exitDy=0;entryX=1;entryY=1;entryDx=0;entryDy=0;endArrow=block;endFill=0;" parent="1" target="67cp0wCS2jolBxcsPaVe-8" edge="1">
          <mxGeometry relative="1" as="geometry">
            <mxPoint x="227" y="350" as="sourcePoint" />
            <mxPoint x="125.89087296526031" y="292.67766952966383" as="targetPoint" />
          </mxGeometry>
        </mxCell>
        <mxCell id="67cp0wCS2jolBxcsPaVe-27" value="试卷审批" style="ellipse;whiteSpace=wrap;html=1;" parent="1" vertex="1">
          <mxGeometry x="190" y="340" width="110" height="50" as="geometry" />
        </mxCell>
        <mxCell id="67cp0wCS2jolBxcsPaVe-36" value="&amp;lt;&amp;lt;include&amp;gt;&amp;gt;" style="rounded=0;orthogonalLoop=1;jettySize=auto;html=1;exitX=1;exitY=0.5;exitDx=0;exitDy=0;entryX=0;entryY=0.5;entryDx=0;entryDy=0;dashed=1;" parent="1" source="67cp0wCS2jolBxcsPaVe-22" target="67cp0wCS2jolBxcsPaVe-24" edge="1">
          <mxGeometry relative="1" as="geometry">
            <mxPoint x="390" y="794.5" as="sourcePoint" />
            <mxPoint x="510" y="794.5" as="targetPoint" />
          </mxGeometry>
        </mxCell>
        <mxCell id="67cp0wCS2jolBxcsPaVe-38" value="&amp;lt;&amp;lt;include&amp;gt;&amp;gt;" style="rounded=0;orthogonalLoop=1;jettySize=auto;html=1;exitX=1;exitY=0.5;exitDx=0;exitDy=0;entryX=0;entryY=1;entryDx=0;entryDy=0;dashed=1;" parent="1" source="67cp0wCS2jolBxcsPaVe-20" target="67cp0wCS2jolBxcsPaVe-24" edge="1">
          <mxGeometry relative="1" as="geometry">
            <mxPoint x="380" y="805" as="sourcePoint" />
            <mxPoint x="490" y="805" as="targetPoint" />
          </mxGeometry>
        </mxCell>
        <mxCell id="67cp0wCS2jolBxcsPaVe-42" value="&amp;lt;&amp;lt;include&amp;gt;&amp;gt;" style="rounded=0;orthogonalLoop=1;jettySize=auto;html=1;exitX=0.5;exitY=1;exitDx=0;exitDy=0;entryX=0.5;entryY=0;entryDx=0;entryDy=0;dashed=1;" parent="1" source="67cp0wCS2jolBxcsPaVe-21" target="67cp0wCS2jolBxcsPaVe-22" edge="1">
          <mxGeometry relative="1" as="geometry">
            <mxPoint x="290" y="805" as="sourcePoint" />
            <mxPoint x="490" y="805" as="targetPoint" />
          </mxGeometry>
        </mxCell>
        <mxCell id="67cp0wCS2jolBxcsPaVe-49" value="" style="endArrow=none;html=1;rounded=0;entryX=0;entryY=0.5;entryDx=0;entryDy=0;" parent="1" target="67cp0wCS2jolBxcsPaVe-21" edge="1">
          <mxGeometry width="50" height="50" relative="1" as="geometry">
            <mxPoint x="40" y="720" as="sourcePoint" />
            <mxPoint x="90" y="670" as="targetPoint" />
          </mxGeometry>
        </mxCell>
        <mxCell id="67cp0wCS2jolBxcsPaVe-50" value="" style="endArrow=none;html=1;rounded=0;entryX=0;entryY=0.5;entryDx=0;entryDy=0;" parent="1" target="67cp0wCS2jolBxcsPaVe-22" edge="1">
          <mxGeometry width="50" height="50" relative="1" as="geometry">
            <mxPoint x="40" y="730" as="sourcePoint" />
            <mxPoint x="90" y="670" as="targetPoint" />
          </mxGeometry>
        </mxCell>
        <mxCell id="67cp0wCS2jolBxcsPaVe-51" value="" style="endArrow=none;html=1;rounded=0;entryX=0;entryY=0.5;entryDx=0;entryDy=0;" parent="1" target="67cp0wCS2jolBxcsPaVe-20" edge="1">
          <mxGeometry width="50" height="50" relative="1" as="geometry">
            <mxPoint x="40" y="745" as="sourcePoint" />
            <mxPoint x="160" y="770" as="targetPoint" />
          </mxGeometry>
        </mxCell>
        <mxCell id="67cp0wCS2jolBxcsPaVe-52" value="登录系统" style="ellipse;whiteSpace=wrap;html=1;" parent="1" vertex="1">
          <mxGeometry x="304" y="160" width="110" height="50" as="geometry" />
        </mxCell>
        <mxCell id="67cp0wCS2jolBxcsPaVe-53" value="" style="endArrow=none;html=1;rounded=0;entryX=0;entryY=0.5;entryDx=0;entryDy=0;" parent="1" target="67cp0wCS2jolBxcsPaVe-52" edge="1">
          <mxGeometry width="50" height="50" relative="1" as="geometry">
            <mxPoint x="-30" y="180" as="sourcePoint" />
            <mxPoint x="20" y="130" as="targetPoint" />
          </mxGeometry>
        </mxCell>
        <mxCell id="67cp0wCS2jolBxcsPaVe-55" value="" style="endArrow=none;html=1;rounded=0;entryX=0;entryY=1;entryDx=0;entryDy=0;" parent="1" target="67cp0wCS2jolBxcsPaVe-17" edge="1">
          <mxGeometry width="50" height="50" relative="1" as="geometry">
            <mxPoint x="-30" y="170" as="sourcePoint" />
            <mxPoint x="20" y="120" as="targetPoint" />
          </mxGeometry>
        </mxCell>
        <mxCell id="67cp0wCS2jolBxcsPaVe-56" value="&amp;lt;&amp;lt;include&amp;gt;&amp;gt;" style="rounded=0;orthogonalLoop=1;jettySize=auto;html=1;exitX=1;exitY=1;exitDx=0;exitDy=0;entryX=0;entryY=0;entryDx=0;entryDy=0;dashed=1;" parent="1" source="67cp0wCS2jolBxcsPaVe-17" target="67cp0wCS2jolBxcsPaVe-52" edge="1">
          <mxGeometry relative="1" as="geometry">
            <mxPoint x="134" y="267" as="sourcePoint" />
            <mxPoint x="206" y="208" as="targetPoint" />
          </mxGeometry>
        </mxCell>
        <mxCell id="67cp0wCS2jolBxcsPaVe-62" style="rounded=0;orthogonalLoop=1;jettySize=auto;html=1;exitX=0;exitY=1;exitDx=0;exitDy=0;entryX=0.5;entryY=0;entryDx=0;entryDy=0;endArrow=block;endFill=0;" parent="1" source="67cp0wCS2jolBxcsPaVe-59" target="67cp0wCS2jolBxcsPaVe-17" edge="1">
          <mxGeometry relative="1" as="geometry" />
        </mxCell>
        <mxCell id="67cp0wCS2jolBxcsPaVe-59" value="整体成绩分析" style="ellipse;whiteSpace=wrap;html=1;" parent="1" vertex="1">
          <mxGeometry x="160" y="-30" width="110" height="50" as="geometry" />
        </mxCell>
        <mxCell id="67cp0wCS2jolBxcsPaVe-65" style="rounded=0;orthogonalLoop=1;jettySize=auto;html=1;exitX=0;exitY=0.5;exitDx=0;exitDy=0;entryX=1;entryY=0;entryDx=0;entryDy=0;endArrow=block;endFill=0;" parent="1" source="67cp0wCS2jolBxcsPaVe-63" target="67cp0wCS2jolBxcsPaVe-27" edge="1">
          <mxGeometry relative="1" as="geometry" />
        </mxCell>
        <mxCell id="67cp0wCS2jolBxcsPaVe-63" value="自动审批" style="ellipse;whiteSpace=wrap;html=1;" parent="1" vertex="1">
          <mxGeometry x="359" y="290" width="110" height="50" as="geometry" />
        </mxCell>
        <mxCell id="67cp0wCS2jolBxcsPaVe-66" style="rounded=0;orthogonalLoop=1;jettySize=auto;html=1;exitX=0;exitY=0.5;exitDx=0;exitDy=0;entryX=1;entryY=1;entryDx=0;entryDy=0;endArrow=block;endFill=0;" parent="1" source="67cp0wCS2jolBxcsPaVe-64" target="67cp0wCS2jolBxcsPaVe-27" edge="1">
          <mxGeometry relative="1" as="geometry" />
        </mxCell>
        <mxCell id="67cp0wCS2jolBxcsPaVe-64" value="人工审批" style="ellipse;whiteSpace=wrap;html=1;" parent="1" vertex="1">
          <mxGeometry x="359" y="380" width="110" height="50" as="geometry" />
        </mxCell>
        <mxCell id="kNXhD3Dg3u-zDp8EUQAG-5" style="edgeStyle=orthogonalEdgeStyle;rounded=0;orthogonalLoop=1;jettySize=auto;html=1;exitX=0.5;exitY=1;exitDx=0;exitDy=0;entryX=0.5;entryY=0;entryDx=0;entryDy=0;" edge="1" parent="1" source="kNXhD3Dg3u-zDp8EUQAG-2" target="kNXhD3Dg3u-zDp8EUQAG-4">
          <mxGeometry relative="1" as="geometry" />
        </mxCell>
        <mxCell id="kNXhD3Dg3u-zDp8EUQAG-2" value="Client" style="rounded=1;whiteSpace=wrap;html=1;" vertex="1" parent="1">
          <mxGeometry x="-690" y="180" width="120" height="40" as="geometry" />
        </mxCell>
        <mxCell id="kNXhD3Dg3u-zDp8EUQAG-3" value="Server" style="rounded=1;whiteSpace=wrap;html=1;" vertex="1" parent="1">
          <mxGeometry x="-473" y="180" width="120" height="40" as="geometry" />
        </mxCell>
        <mxCell id="kNXhD3Dg3u-zDp8EUQAG-4" value="发起SSH请求" style="rounded=1;whiteSpace=wrap;html=1;" vertex="1" parent="1">
          <mxGeometry x="-690" y="245" width="120" height="40" as="geometry" />
        </mxCell>
        <mxCell id="kNXhD3Dg3u-zDp8EUQAG-16" style="edgeStyle=orthogonalEdgeStyle;rounded=0;orthogonalLoop=1;jettySize=auto;html=1;entryX=0.5;entryY=0;entryDx=0;entryDy=0;exitX=0.5;exitY=1;exitDx=0;exitDy=0;" edge="1" parent="1" source="kNXhD3Dg3u-zDp8EUQAG-3" target="kNXhD3Dg3u-zDp8EUQAG-13">
          <mxGeometry relative="1" as="geometry">
            <mxPoint x="-413" y="285" as="sourcePoint" />
          </mxGeometry>
        </mxCell>
        <mxCell id="kNXhD3Dg3u-zDp8EUQAG-10" value="发起SSH请求" style="rounded=1;whiteSpace=wrap;html=1;" vertex="1" parent="1">
          <mxGeometry x="-540" y="100" width="120" height="40" as="geometry" />
        </mxCell>
        <mxCell id="kNXhD3Dg3u-zDp8EUQAG-11" value="收到公钥，加密用户名和密码后发送" style="rounded=1;whiteSpace=wrap;html=1;" vertex="1" parent="1">
          <mxGeometry x="-690" y="370" width="120" height="40" as="geometry" />
        </mxCell>
        <mxCell id="kNXhD3Dg3u-zDp8EUQAG-12" value="发起SSH请求" style="rounded=1;whiteSpace=wrap;html=1;" vertex="1" parent="1">
          <mxGeometry x="-310" y="20" width="120" height="40" as="geometry" />
        </mxCell>
        <mxCell id="kNXhD3Dg3u-zDp8EUQAG-13" value="收到请求，发送公钥" style="rounded=1;whiteSpace=wrap;html=1;" vertex="1" parent="1">
          <mxGeometry x="-473" y="310" width="120" height="40" as="geometry" />
        </mxCell>
        <mxCell id="kNXhD3Dg3u-zDp8EUQAG-14" value="发起SSH请求" style="rounded=1;whiteSpace=wrap;html=1;" vertex="1" parent="1">
          <mxGeometry x="-460" y="30" width="120" height="40" as="geometry" />
        </mxCell>
        <mxCell id="kNXhD3Dg3u-zDp8EUQAG-15" value="发起SSH请求" style="rounded=1;whiteSpace=wrap;html=1;" vertex="1" parent="1">
          <mxGeometry x="-660" y="40" width="120" height="40" as="geometry" />
        </mxCell>
        <mxCell id="kNXhD3Dg3u-zDp8EUQAG-17" value="通过私钥解密并验证" style="rounded=1;whiteSpace=wrap;html=1;" vertex="1" parent="1">
          <mxGeometry x="-473" y="420" width="120" height="40" as="geometry" />
        </mxCell>
        <mxCell id="kNXhD3Dg3u-zDp8EUQAG-18" value="" style="endArrow=classic;html=1;rounded=0;entryX=0;entryY=0.5;entryDx=0;entryDy=0;" edge="1" parent="1" target="kNXhD3Dg3u-zDp8EUQAG-13">
          <mxGeometry relative="1" as="geometry">
            <mxPoint x="-570" y="270" as="sourcePoint" />
            <mxPoint x="-470" y="260" as="targetPoint" />
          </mxGeometry>
        </mxCell>
        <mxCell id="kNXhD3Dg3u-zDp8EUQAG-19" value="" style="shape=message;html=1;outlineConnect=0;" vertex="1" parent="kNXhD3Dg3u-zDp8EUQAG-18">
          <mxGeometry width="20" height="14" relative="1" as="geometry">
            <mxPoint x="-10" y="-7" as="offset" />
          </mxGeometry>
        </mxCell>
        <mxCell id="kNXhD3Dg3u-zDp8EUQAG-20" value="" style="endArrow=classic;html=1;rounded=0;entryX=0;entryY=0.5;entryDx=0;entryDy=0;" edge="1" parent="1" target="kNXhD3Dg3u-zDp8EUQAG-17">
          <mxGeometry relative="1" as="geometry">
            <mxPoint x="-570" y="390" as="sourcePoint" />
            <mxPoint x="-470" y="390" as="targetPoint" />
          </mxGeometry>
        </mxCell>
        <mxCell id="kNXhD3Dg3u-zDp8EUQAG-21" value="" style="shape=message;html=1;outlineConnect=0;" vertex="1" parent="kNXhD3Dg3u-zDp8EUQAG-20">
          <mxGeometry width="20" height="14" relative="1" as="geometry">
            <mxPoint x="-10" y="-7" as="offset" />
          </mxGeometry>
        </mxCell>
        <mxCell id="kNXhD3Dg3u-zDp8EUQAG-22" value="" style="endArrow=classic;html=1;rounded=0;entryX=1;entryY=0.5;entryDx=0;entryDy=0;exitX=0;exitY=0.75;exitDx=0;exitDy=0;" edge="1" parent="1" source="kNXhD3Dg3u-zDp8EUQAG-13" target="kNXhD3Dg3u-zDp8EUQAG-11">
          <mxGeometry relative="1" as="geometry">
            <mxPoint x="-470" y="340" as="sourcePoint" />
            <mxPoint x="-370" y="330" as="targetPoint" />
          </mxGeometry>
        </mxCell>
        <mxCell id="kNXhD3Dg3u-zDp8EUQAG-23" value="" style="shape=message;html=1;outlineConnect=0;" vertex="1" parent="kNXhD3Dg3u-zDp8EUQAG-22">
          <mxGeometry width="20" height="14" relative="1" as="geometry">
            <mxPoint x="-10" y="-7" as="offset" />
          </mxGeometry>
        </mxCell>
        <mxCell id="kNXhD3Dg3u-zDp8EUQAG-25" style="edgeStyle=orthogonalEdgeStyle;rounded=0;orthogonalLoop=1;jettySize=auto;html=1;exitX=0.5;exitY=1;exitDx=0;exitDy=0;entryX=0.5;entryY=0;entryDx=0;entryDy=0;" edge="1" parent="1" source="kNXhD3Dg3u-zDp8EUQAG-26" target="kNXhD3Dg3u-zDp8EUQAG-28">
          <mxGeometry relative="1" as="geometry" />
        </mxCell>
        <mxCell id="kNXhD3Dg3u-zDp8EUQAG-26" value="Client" style="rounded=1;whiteSpace=wrap;html=1;" vertex="1" parent="1">
          <mxGeometry x="-710" y="780" width="120" height="40" as="geometry" />
        </mxCell>
        <mxCell id="kNXhD3Dg3u-zDp8EUQAG-27" value="Server" style="rounded=1;whiteSpace=wrap;html=1;" vertex="1" parent="1">
          <mxGeometry x="-493" y="780" width="120" height="40" as="geometry" />
        </mxCell>
        <mxCell id="kNXhD3Dg3u-zDp8EUQAG-45" style="edgeStyle=orthogonalEdgeStyle;rounded=0;orthogonalLoop=1;jettySize=auto;html=1;exitX=0.5;exitY=1;exitDx=0;exitDy=0;entryX=0.5;entryY=0;entryDx=0;entryDy=0;" edge="1" parent="1" source="kNXhD3Dg3u-zDp8EUQAG-28" target="kNXhD3Dg3u-zDp8EUQAG-30">
          <mxGeometry relative="1" as="geometry" />
        </mxCell>
        <mxCell id="kNXhD3Dg3u-zDp8EUQAG-28" value="生成公钥私钥，发送公钥" style="rounded=1;whiteSpace=wrap;html=1;" vertex="1" parent="1">
          <mxGeometry x="-710" y="845" width="120" height="40" as="geometry" />
        </mxCell>
        <mxCell id="kNXhD3Dg3u-zDp8EUQAG-29" style="edgeStyle=orthogonalEdgeStyle;rounded=0;orthogonalLoop=1;jettySize=auto;html=1;entryX=0.5;entryY=0;entryDx=0;entryDy=0;exitX=0.5;exitY=1;exitDx=0;exitDy=0;" edge="1" parent="1" source="kNXhD3Dg3u-zDp8EUQAG-27" target="kNXhD3Dg3u-zDp8EUQAG-31">
          <mxGeometry relative="1" as="geometry">
            <mxPoint x="-433" y="885" as="sourcePoint" />
          </mxGeometry>
        </mxCell>
        <mxCell id="kNXhD3Dg3u-zDp8EUQAG-30" value="发送连接请求" style="rounded=1;whiteSpace=wrap;html=1;" vertex="1" parent="1">
          <mxGeometry x="-710" y="910" width="120" height="40" as="geometry" />
        </mxCell>
        <mxCell id="kNXhD3Dg3u-zDp8EUQAG-44" style="edgeStyle=orthogonalEdgeStyle;rounded=0;orthogonalLoop=1;jettySize=auto;html=1;exitX=0.5;exitY=1;exitDx=0;exitDy=0;entryX=0.5;entryY=0;entryDx=0;entryDy=0;" edge="1" parent="1" source="kNXhD3Dg3u-zDp8EUQAG-31" target="kNXhD3Dg3u-zDp8EUQAG-32">
          <mxGeometry relative="1" as="geometry" />
        </mxCell>
        <mxCell id="kNXhD3Dg3u-zDp8EUQAG-31" value="存储公钥" style="rounded=1;whiteSpace=wrap;html=1;" vertex="1" parent="1">
          <mxGeometry x="-493" y="845" width="120" height="40" as="geometry" />
        </mxCell>
        <mxCell id="kNXhD3Dg3u-zDp8EUQAG-32" value="用对应公钥加密随机数，发送" style="rounded=1;whiteSpace=wrap;html=1;" vertex="1" parent="1">
          <mxGeometry x="-493" y="960" width="120" height="40" as="geometry" />
        </mxCell>
        <mxCell id="kNXhD3Dg3u-zDp8EUQAG-39" value="" style="endArrow=classic;html=1;rounded=0;exitX=1;exitY=0.5;exitDx=0;exitDy=0;entryX=0;entryY=0.5;entryDx=0;entryDy=0;" edge="1" parent="1" source="kNXhD3Dg3u-zDp8EUQAG-28" target="kNXhD3Dg3u-zDp8EUQAG-31">
          <mxGeometry relative="1" as="geometry">
            <mxPoint x="-590" y="870" as="sourcePoint" />
            <mxPoint x="-500" y="865" as="targetPoint" />
          </mxGeometry>
        </mxCell>
        <mxCell id="kNXhD3Dg3u-zDp8EUQAG-40" value="" style="shape=message;html=1;outlineConnect=0;" vertex="1" parent="kNXhD3Dg3u-zDp8EUQAG-39">
          <mxGeometry width="20" height="14" relative="1" as="geometry">
            <mxPoint x="-10" y="-7" as="offset" />
          </mxGeometry>
        </mxCell>
        <mxCell id="kNXhD3Dg3u-zDp8EUQAG-41" value="" style="endArrow=classic;html=1;rounded=0;exitX=1;exitY=0.5;exitDx=0;exitDy=0;entryX=0;entryY=0.5;entryDx=0;entryDy=0;" edge="1" parent="1" target="kNXhD3Dg3u-zDp8EUQAG-32">
          <mxGeometry relative="1" as="geometry">
            <mxPoint x="-590" y="929.71" as="sourcePoint" />
            <mxPoint x="-500" y="930" as="targetPoint" />
          </mxGeometry>
        </mxCell>
        <mxCell id="kNXhD3Dg3u-zDp8EUQAG-42" value="" style="shape=message;html=1;outlineConnect=0;" vertex="1" parent="kNXhD3Dg3u-zDp8EUQAG-41">
          <mxGeometry width="20" height="14" relative="1" as="geometry">
            <mxPoint x="-10" y="-7" as="offset" />
          </mxGeometry>
        </mxCell>
        <mxCell id="kNXhD3Dg3u-zDp8EUQAG-43" value="验证是否正确" style="rounded=1;whiteSpace=wrap;html=1;" vertex="1" parent="1">
          <mxGeometry x="-493" y="1050" width="120" height="40" as="geometry" />
        </mxCell>
        <mxCell id="kNXhD3Dg3u-zDp8EUQAG-46" value="使用私钥解密随机数，并发送" style="rounded=1;whiteSpace=wrap;html=1;" vertex="1" parent="1">
          <mxGeometry x="-710" y="1000" width="120" height="40" as="geometry" />
        </mxCell>
        <mxCell id="kNXhD3Dg3u-zDp8EUQAG-47" value="" style="endArrow=classic;html=1;rounded=0;exitX=0;exitY=0.5;exitDx=0;exitDy=0;entryX=1;entryY=0.5;entryDx=0;entryDy=0;" edge="1" parent="1" source="kNXhD3Dg3u-zDp8EUQAG-32" target="kNXhD3Dg3u-zDp8EUQAG-46">
          <mxGeometry relative="1" as="geometry">
            <mxPoint x="-493" y="1040" as="sourcePoint" />
            <mxPoint x="-396" y="1040" as="targetPoint" />
          </mxGeometry>
        </mxCell>
        <mxCell id="kNXhD3Dg3u-zDp8EUQAG-48" value="" style="shape=message;html=1;outlineConnect=0;" vertex="1" parent="kNXhD3Dg3u-zDp8EUQAG-47">
          <mxGeometry width="20" height="14" relative="1" as="geometry">
            <mxPoint x="-10" y="-7" as="offset" />
          </mxGeometry>
        </mxCell>
        <mxCell id="kNXhD3Dg3u-zDp8EUQAG-49" value="" style="endArrow=classic;html=1;rounded=0;exitX=1;exitY=0.5;exitDx=0;exitDy=0;entryX=0;entryY=0.5;entryDx=0;entryDy=0;" edge="1" parent="1" source="kNXhD3Dg3u-zDp8EUQAG-46" target="kNXhD3Dg3u-zDp8EUQAG-43">
          <mxGeometry relative="1" as="geometry">
            <mxPoint x="-580" y="939.71" as="sourcePoint" />
            <mxPoint x="-483" y="990" as="targetPoint" />
          </mxGeometry>
        </mxCell>
        <mxCell id="kNXhD3Dg3u-zDp8EUQAG-50" value="" style="shape=message;html=1;outlineConnect=0;" vertex="1" parent="kNXhD3Dg3u-zDp8EUQAG-49">
          <mxGeometry width="20" height="14" relative="1" as="geometry">
            <mxPoint x="-10" y="-7" as="offset" />
          </mxGeometry>
        </mxCell>
      </root>
    </mxGraphModel>
  </diagram>
</mxfile>
